<svg width="154" height="153" viewBox="0 0 154 153" fill="none" xmlns="http://www.w3.org/2000/svg">
<path d="M112.534 102.314C106.138 113.931 95.3891 122.53 82.6524 126.222C69.9157 129.913 56.2343 128.394 44.6179 121.998C33.0015 115.602 24.4017 104.853 20.7103 92.1164C17.0189 79.3797 18.5384 65.6983 24.9344 54.0819L68.734 78.1981L112.534 102.314Z" fill="black"/>
<path d="M42.0503 50.1539C48.464 38.5473 59.2258 29.964 71.9682 26.2921C84.7105 22.6202 98.3896 24.1606 109.996 30.5744C121.603 36.9882 130.186 47.7499 133.858 60.4923C137.53 73.2346 135.989 86.9137 129.576 98.5203L85.813 74.3371L42.0503 50.1539Z" fill="black"/>
</svg>
